<?xml version="1.0" encoding="utf-8"?>
<!-- Generator: Adobe Illustrator 15.0.2, SVG Export Plug-In . SVG Version: 6.00 Build 0)  -->
<!DOCTYPE svg PUBLIC "-//W3C//DTD SVG 1.1//EN" "http://www.w3.org/Graphics/SVG/1.1/DTD/svg11.dtd">
<svg version="1.1" xmlns="http://www.w3.org/2000/svg" xmlns:xlink="http://www.w3.org/1999/xlink" x="0px" y="0px"
	 width="595.28px" height="841.89px" viewBox="0 0 595.28 841.89" enable-background="new 0 0 595.28 841.89" xml:space="preserve">
<g id="Outline">
	<rect x="0" y="0" fill="none" stroke="#000000" stroke-miterlimit="10" width="595.28" height="841.89"/>
</g>
<g id="Parking_Lot_T">
	<polygon opacity="0.75" fill="#D7DF23" points="259.333,101.833 189.25,101.833 189.375,99.25 186,99.375 186,59.625 189.25,59.5 
		189.125,57 256.125,57 256.25,60.5 259.333,60.75 	"/>
</g>
<g id="Parking_Lot_C">
	<path opacity="0.5" fill="#00AEEF" d="M541,347.167c-2,1.167-46.166,2.833-48.833,0S490,330,492.167,328
		c1.833-4.167,0.167-3.833,7.667-9.5c7.833-1.333,16.666-16.167,20-21c7-1,17.243-9.121,17.666-10.333
		c1.334-5.667,19.347-6.833,22.257-4.5c6.077,5-4.757,21.833-2.09,28.5C562.167,327,556,333.833,556,333.833S543,346,541,347.167z"
		/>
</g>
<g id="Parking_Lot_A">
	<path opacity="0.67" fill="#2E3192" d="M541.166,196.667c0,0-84.832,65.5-87.666,64.5s-16.667-29.333-16.667-29.333l4.5-25.833
		l60.333-97l18.834,11.833c0,0-2.369,7.934,1.666,18.201c4.834,12.299,22.57,27.921,22.57,27.921L541.166,196.667z"/>
</g>
<g id="Pakring_Lot_B">
	<path opacity="0.75" fill="#57974C" d="M558.666,251.333c0,0-25.832,2.167-45.166,15.5c-13.461,9.283-31.801,23.549-34.833,28
		c-1.979,2.904-7.918,5.437-7.918,5.437c-5.972-6.901-20.083-28.437-18.11-32.675c-0.306-3.761,87.68-67.53,89.854-68.729
		s12.827,0.199,15.834,3.167S558.666,251.333,558.666,251.333z"/>
</g>
<g id="Parking_Lot_D">
	<path opacity="0.75" fill="#FFF200" d="M547.834,396.833c-0.667,1.833-3.834,3.333-6.167,2.667s-47.566-44.474-46.533-46.154
		s50.866-0.68,52.366-1.18s6.167,3.667,7.167,5S548.501,395,547.834,396.833z"/>
</g>
<g id="Parking_Lot_I">
	<path opacity="0.49" fill="#ED1C24" d="M228.333,430.75H179.75c0,0-0.625-7.734-2.125-9.805c-1.125,0.305-9.5,0.805-10-0.57
		s-0.305-38.874-0.113-39.625s5.12,0.214,5.745-0.161s-0.256-2.464,0.619-3.089s47.125-0.875,48.5,0s0.875,3.25,0.25,5.375
		s-7.5,5.25-5.875,11s8.448,18.199,11.583,21.25C228.25,419.875,228.333,430.75,228.333,430.75z"/>
	<path fill="none" stroke="#000000" stroke-miterlimit="10" d="M168.625,420.945"/>
</g>
<g id="Parking_Lot_H">
	<path opacity="0.5" fill="#EC008C" d="M216.5,364.625c-1.25,1.125-46.75,1-47.875,0s-1.375-68.875,0-70.25s46.375-1.375,47.875,0
		S217.75,363.5,216.5,364.625z"/>
</g>
<g id="Parking_Lot_J">
	<path fill="#603913" d="M310.25,516.875C309.125,517.5,271.125,517,270,516.5s-2.25-72.25-1.125-73.25s14.75-1.25,16,0
		s-0.717,34.027-0.092,35.027s24.624-0.277,25.624,0.598S311.375,516.25,310.25,516.875z"/>
	<path fill="#603913" d="M377.75,540.375c-0.875,1.125-97.875,2.875-98.875,1.875s-1.375-18.875-0.125-20s40.75-0.5,41.875,0
		s-1.125,8.375,0.125,9.062s55.375-0.938,57.25,1.438S378.625,539.25,377.75,540.375z"/>
</g>
<g id="Parking_Lot_M">
	<path opacity="0.75" fill="#00A79D" d="M436.592,571.885c-0.834,1.5-29.092,3.308-29.592,1.113s-7.166-33.831-7.166-33.831
		s-4.5-14.667,1-20.667c4.5-7,35.771-3.624,37.938-2.124S437.426,570.385,436.592,571.885z"/>
	<path opacity="0.72" fill="#00A79D" d="M468.334,574.019c-1.5,1.314,1.166,2.98,0.166,3.814s-13.5-0.499-15.333-1.666
		s-0.166-1.834-1.333-3.167s-4.5-0.667-4.5-0.667s-1.668-0.999-2.334-2.666s3.167-31.334-2.333-34.667
		c-0.167-5-0.5-19.364,1.167-20.364s27-0.969,28.333,0.864s1.167,57.37,0,58.519S469.834,572.704,468.334,574.019z"/>
	<path opacity="0.84" fill="#00A79D" d="M481.817,507.783c-0.75,1-27.942,1.592-29.317-0.533s-1.375-8-0.375-9.125
		s21.5-0.625,24,0.125s5.875,1.5,6.625,3.125S482.567,506.783,481.817,507.783z"/>
</g>
<g id="Pakring_Lot_U">
	<path opacity="0.82" fill="#1C75BC" d="M306.375,705.75c-0.625,0.75,0.625,3.875,0,4.75s-39.75,0.5-40.875,0s0.75-2.25,0-3.5
		s-2.5,0.5-3.875-0.125s-0.625-88.125,0-89s3.375,0.75,4.125,0.125s-1.5-3,0-3.625s9.249-0.75,10.125,0s-0.5,2.625,0.125,3.375
		s1.66-1.125,2.643,0s0.232,43.75,0.232,43.75s27.871-0.695,28.998-0.223s-0.748,3.348,0.127,4.473s2.75-1.498,3.5-0.124
		s0.875,38.374,0,39.874S307,705,306.375,705.75z"/>
</g>
</svg>
