<?xml version="1.0" encoding="utf-8"?>
<!-- Generator: Adobe Illustrator 15.0.2, SVG Export Plug-In . SVG Version: 6.00 Build 0)  -->
<!DOCTYPE svg PUBLIC "-//W3C//DTD SVG 1.1//EN" "http://www.w3.org/Graphics/SVG/1.1/DTD/svg11.dtd">
<svg version="1.1" id="Layer_2" xmlns="http://www.w3.org/2000/svg" xmlns:xlink="http://www.w3.org/1999/xlink" x="0px" y="0px"
	 width="792px" height="503px" viewBox="0 71.83 792 503" enable-background="new 0 71.83 792 503" xml:space="preserve">
<g id="The_Box">
	<rect y="71.83" fill="#0084C8" width="792" height="503"/>
</g>
<g id="The_Surrounding">
	<path fill="none" stroke="#FFFFFF" stroke-miterlimit="10" d="M50.667,237c-3.965,3.351-30.875,3.83-38.333,0
		c-12.333-6.333-11.424-62.297-1-69.333c13.333-9,34.631-5.621,39.667-1.667S54.632,233.649,50.667,237z"/>
	<path fill="none" stroke="#FFFFFF" stroke-miterlimit="10" d="M52.667,358C48,362.667,19.199,359.932,12,358
		c-8.701-2.333-10-61.667-0.333-69.667s35-7.333,40.333-1S57.333,353.333,52.667,358z"/>
	<path fill="none" stroke="#FFFFFF" stroke-miterlimit="10" d="M53,117.333c-3.333,9-39.721,1.153-42-1.333
		C0,104,4.932,81.333,4.932,81.333H53C53,81.333,57.455,105.304,53,117.333z"/>
	<line fill="none" stroke="#FFFFFF" stroke-miterlimit="10" x1="615.334" y1="86" x2="53.729" y2="86"/>
	<path fill="none" stroke="#FFFFFF" stroke-miterlimit="10" d="M628,86c0,0,0.666,22.334,0,31.667c0,7.333-12.451,6.666-12.666,0
		s0-31.667,0-31.667"/>
	<line fill="none" stroke="#FFFFFF" stroke-miterlimit="10" x1="628" y1="86" x2="628" y2="75.667"/>
	<line fill="none" stroke="#FFFFFF" stroke-miterlimit="10" x1="628" y1="75.667" x2="645.667" y2="75.667"/>
	<path fill="none" stroke="#FFFFFF" stroke-miterlimit="10" d="M645.667,75.667c0,0,46.689,154.174,55.023,156.507
		s58.31,2.16,58.31,2.16"/>
	<path fill="none" stroke="#FFFFFF" stroke-miterlimit="10" d="M759,234.333c0,0,0,109.167,3.25,122.667
		c1.758,7.301,13.75,7,13.75,7"/>
	<line fill="none" stroke="#FFFFFF" stroke-miterlimit="10" x1="776" y1="364" x2="776" y2="407.667"/>
	<path fill="none" stroke="#FFFFFF" stroke-miterlimit="10" d="M776,407.667c0,0-9.666-1.001-13.666,6.333
		s-1.395,52.441-0.584,62.75c0.35,4.448,1.806,7.458,20.25,5.917"/>
	<line fill="none" stroke="#FFFFFF" stroke-miterlimit="10" x1="782" y1="482.667" x2="782" y2="526"/>
	<path fill="none" stroke="#FFFFFF" stroke-miterlimit="10" d="M782,526c0,0-10.334,0.334-13,6.667S767.967,563,767.967,563"/>
	<line fill="none" stroke="#FFFFFF" stroke-miterlimit="10" x1="769.634" y1="563" x2="162.333" y2="563"/>
	<line fill="none" stroke="#FFFFFF" stroke-miterlimit="10" x1="162.333" y1="563" x2="162.333" y2="409.334"/>
	<path fill="none" stroke="#FFFFFF" stroke-miterlimit="10" d="M162.333,409.334c-5-8.667-9,0-9,0l-0.333,29"/>
	<path fill="none" stroke="#FFFFFF" stroke-miterlimit="10" d="M153,438.334"/>
	<path fill="none" stroke="#FFFFFF" stroke-miterlimit="10" d="M55,441.75c0,0,1.558-23.749-3.888-32.416
		c-3.161-5.03-19.864-9.442-31.446-3.853c-8.373,4.042-13,18.81-13,18.81"/>
	<line fill="none" stroke="#FFFFFF" stroke-miterlimit="10" x1="6.667" y1="423.574" x2="6.667" y2="578.275"/>
	<path fill="none" stroke="#FFFFFF" stroke-miterlimit="10" d="M396,360.334c-5.667,4.333-48.333,3.334-53.667,0s-5-69.334,0-73
		s47.667-5.667,53.667,0S401.666,356.001,396,360.334z"/>
	<path fill="none" stroke="#FFFFFF" stroke-miterlimit="10" d="M637,227.667c0.333,23-20,15.333-20,0C617,215,615.667,187,617,173
		s19.67-12.99,20,0S638,197.667,637,227.667z"/>
	<path fill="none" stroke="#FFFFFF" stroke-miterlimit="10" d="M637.527,355.334c0.473,10.666-21.12,10.333-21.12-1.667
		s-0.334-39.667,0-61c0-15,22.396-8.326,22.593,0.667S637.055,344.668,637.527,355.334z"/>
	<path fill="none" stroke="#FFFFFF" stroke-miterlimit="10" d="M693.667,350.334c0,15.667-20.059,20.999-20.334-0.334
		s-0.667-29.333,0-53.333c0.667-20,20.334-10.333,20.334,0.667S693.667,334.667,693.667,350.334z"/>
	<path fill="none" stroke="#FFFFFF" stroke-miterlimit="10" d="M639.013,477c-1.346,12.667-20.013,7.494-21.346,0
		c-0.906-5.095-1-45.001,0-59.667s21.247-17.662,21.346,0C639.112,434.995,640.211,465.726,639.013,477z"/>
	<path fill="none" stroke="#FFFFFF" stroke-miterlimit="10" d="M693.667,475.333c0.667,10.334-19.333,14.666-19.333,0s0-46.667,0-60
		s19.466-11.655,19.333,0S693,464.999,693.667,475.333z"/>
	<path fill="none" stroke="#FFFFFF" stroke-miterlimit="10" d="M215,474.334c-0.333,16-17.667,15-17.667,0s-0.667-41.333,0-58
		s17.593-11.336,17.667,0S215.333,458.334,215,474.334z"/>
	<path fill="none" stroke="#FFFFFF" stroke-miterlimit="10" d="M151.664,438.334c0,0,3.336-1.834-2.164,1.166S55,441.75,55,441.75"
		/>
</g>
<g id="Top_most_Parking">
	<line fill="none" stroke="#FFFFFF" stroke-miterlimit="10" x1="65.75" y1="86" x2="65.75" y2="118.75"/>
	<line fill="none" stroke="#FFFFFF" stroke-miterlimit="10" x1="80.5" y1="86" x2="80.5" y2="118.75"/>
	<line fill="none" stroke="#FFFFFF" stroke-miterlimit="10" x1="94.75" y1="86" x2="94.75" y2="118.75"/>
	<line fill="none" stroke="#FFFFFF" stroke-miterlimit="10" x1="109.75" y1="86" x2="109.75" y2="118.75"/>
	<line fill="none" stroke="#FFFFFF" stroke-miterlimit="10" x1="123.75" y1="86" x2="123.75" y2="118.75"/>
	<line fill="none" stroke="#FFFFFF" stroke-miterlimit="10" x1="138" y1="86" x2="138" y2="118.75"/>
	<line fill="none" stroke="#FFFFFF" stroke-miterlimit="10" x1="152.5" y1="86" x2="152.5" y2="118.75"/>
	<line fill="none" stroke="#FFFFFF" stroke-miterlimit="10" x1="167" y1="86" x2="167" y2="118.75"/>
	<line fill="none" stroke="#FFFFFF" stroke-miterlimit="10" x1="181.75" y1="86" x2="181.75" y2="118.75"/>
	<line fill="none" stroke="#FFFFFF" stroke-miterlimit="10" x1="195.25" y1="86" x2="195.25" y2="118.75"/>
	<line fill="none" stroke="#FFFFFF" stroke-miterlimit="10" x1="210.25" y1="86" x2="210.25" y2="118.75"/>
	<line fill="none" stroke="#FFFFFF" stroke-miterlimit="10" x1="224.25" y1="86" x2="224.25" y2="118.75"/>
	<line fill="none" stroke="#FFFFFF" stroke-miterlimit="10" x1="239" y1="86" x2="239" y2="118.75"/>
	<line fill="none" stroke="#FFFFFF" stroke-miterlimit="10" x1="253.5" y1="86" x2="253.5" y2="118.75"/>
	<line fill="none" stroke="#FFFFFF" stroke-miterlimit="10" x1="268" y1="86" x2="268" y2="118.75"/>
	<line fill="none" stroke="#FFFFFF" stroke-miterlimit="10" x1="282" y1="86" x2="282" y2="118.75"/>
	<line fill="none" stroke="#FFFFFF" stroke-miterlimit="10" x1="296.75" y1="86" x2="296.75" y2="118.75"/>
	<line fill="none" stroke="#FFFFFF" stroke-miterlimit="10" x1="310.5" y1="86" x2="310.5" y2="118.75"/>
	<line fill="none" stroke="#FFFFFF" stroke-miterlimit="10" x1="325.75" y1="86" x2="325.75" y2="118.75"/>
	<line fill="none" stroke="#FFFFFF" stroke-miterlimit="10" x1="340.25" y1="86" x2="340.25" y2="118.75"/>
	<line fill="none" stroke="#FFFFFF" stroke-miterlimit="10" x1="354" y1="86" x2="354" y2="118.75"/>
	<line fill="none" stroke="#FFFFFF" stroke-miterlimit="10" x1="368" y1="86" x2="368" y2="118.75"/>
	<line fill="none" stroke="#FFFFFF" stroke-miterlimit="10" x1="383" y1="86" x2="383" y2="118.75"/>
	<line fill="none" stroke="#FFFFFF" stroke-miterlimit="10" x1="397.75" y1="86" x2="397.75" y2="118.75"/>
	<line fill="none" stroke="#FFFFFF" stroke-miterlimit="10" x1="412" y1="86" x2="412" y2="118.75"/>
	<line fill="none" stroke="#FFFFFF" stroke-miterlimit="10" x1="426.75" y1="86" x2="426.75" y2="118.75"/>
	<line fill="none" stroke="#FFFFFF" stroke-miterlimit="10" x1="440.5" y1="86" x2="440.5" y2="118.75"/>
	<line fill="none" stroke="#FFFFFF" stroke-miterlimit="10" x1="455.25" y1="86" x2="455.25" y2="118.75"/>
	<line fill="none" stroke="#FFFFFF" stroke-miterlimit="10" x1="470.25" y1="86" x2="470.25" y2="118.75"/>
	<path fill="none" stroke="#FFFFFF" stroke-miterlimit="10" d="M492,86"/>
	<path fill="none" stroke="#FFFFFF" stroke-miterlimit="10" d="M492,53.25"/>
	<line fill="none" stroke="#FFFFFF" stroke-miterlimit="10" x1="505.75" y1="86" x2="505.75" y2="118.75"/>
	<path fill="none" stroke="#FFFFFF" stroke-miterlimit="10" d="M520.5,118.75"/>
	<path fill="none" stroke="#FFFFFF" stroke-miterlimit="10" d="M520.5,86"/>
	<path fill="none" stroke="#FFFFFF" stroke-miterlimit="10" d="M528.5,118.75"/>
	<path fill="none" stroke="#FFFFFF" stroke-miterlimit="10" d="M528.5,86"/>
	<line fill="none" stroke="#FFFFFF" stroke-miterlimit="10" x1="542.75" y1="86" x2="542.75" y2="118.75"/>
	<path fill="none" stroke="#FFFFFF" stroke-miterlimit="10" d="M557,118.75"/>
	<path fill="none" stroke="#FFFFFF" stroke-miterlimit="10" d="M557,86"/>
	<path fill="none" stroke="#FFFFFF" stroke-miterlimit="10" d="M565.5,118.75"/>
	<path fill="none" stroke="#FFFFFF" stroke-miterlimit="10" d="M565.5,86"/>
	<line fill="none" stroke="#FFFFFF" stroke-miterlimit="10" x1="579" y1="86" x2="579" y2="118.75"/>
	<path fill="none" stroke="#FFFFFF" stroke-miterlimit="10" d="M592.25,118.75"/>
	<path fill="none" stroke="#FFFFFF" stroke-miterlimit="10" d="M592.25,86"/>
	<path fill="none" stroke="#FFFFFF" stroke-miterlimit="10" d="M605.25,118.75"/>
	<path fill="none" stroke="#FFFFFF" stroke-miterlimit="10" d="M605.25,86"/>
	<path fill="none" stroke="#FFFFFF" stroke-miterlimit="10" d="M493,118.483"/>
	<path fill="none" stroke="#FFFFFF" stroke-miterlimit="10" d="M483.249,118.771"/>
	<path fill="none" stroke="#FFFFFF" stroke-miterlimit="10" d="M528.5,118.75"/>
	<path fill="none" stroke="#FFFFFF" stroke-miterlimit="10" d="M520.5,118.75"/>
	<path fill="none" stroke="#FFFFFF" stroke-miterlimit="10" d="M565.5,118.75"/>
	<path fill="none" stroke="#FFFFFF" stroke-miterlimit="10" d="M557,118.75"/>
	<path fill="none" stroke="#FFFFFF" stroke-miterlimit="10" d="M605.25,118.75"/>
	<path fill="none" stroke="#FFFFFF" stroke-miterlimit="10" d="M592.25,118.75"/>
	<line fill="none" stroke="#FFFFFF" stroke-miterlimit="10" x1="492.142" y1="93.278" x2="483.85" y2="102.112"/>
	<line fill="none" stroke="#FFFFFF" stroke-miterlimit="10" x1="491.969" y1="98.281" x2="483.78" y2="106.469"/>
	<line fill="none" stroke="#FFFFFF" stroke-miterlimit="10" x1="491.969" y1="103.667" x2="483.708" y2="111.928"/>
	<line fill="none" stroke="#FFFFFF" stroke-miterlimit="10" x1="492" y1="109.667" x2="483.818" y2="117.292"/>
	<line fill="none" stroke="#FFFFFF" stroke-miterlimit="10" x1="491.584" y1="115.083" x2="487.48" y2="119.188"/>
	<line fill="none" stroke="#FFFFFF" stroke-miterlimit="10" x1="491.931" y1="87.687" x2="483.78" y2="95.837"/>
	<line fill="none" stroke="#FFFFFF" stroke-miterlimit="10" x1="487.667" y1="86" x2="483.818" y2="90.396"/>
	<line fill="none" stroke="#FFFFFF" stroke-miterlimit="10" x1="520.5" y1="90.559" x2="524.779" y2="86.279"/>
	<line fill="none" stroke="#FFFFFF" stroke-miterlimit="10" x1="520.8" y1="95.313" x2="528.55" y2="87.563"/>
	<line fill="none" stroke="#FFFFFF" stroke-miterlimit="10" x1="520.416" y1="100.938" x2="528.333" y2="93.021"/>
	<line fill="none" stroke="#FFFFFF" stroke-miterlimit="10" x1="520.5" y1="106.469" x2="528.262" y2="98.042"/>
	<line fill="none" stroke="#FFFFFF" stroke-miterlimit="10" x1="520.5" y1="111.928" x2="528.5" y2="104.46"/>
	<line fill="none" stroke="#FFFFFF" stroke-miterlimit="10" x1="520.625" y1="116.97" x2="528.458" y2="109.137"/>
	<line fill="none" stroke="#FFFFFF" stroke-miterlimit="10" x1="528.25" y1="114.833" x2="524.601" y2="118.483"/>
	<line fill="none" stroke="#FFFFFF" stroke-miterlimit="10" x1="557" y1="90.559" x2="561.265" y2="86.294"/>
	<line fill="none" stroke="#FFFFFF" stroke-miterlimit="10" x1="556.833" y1="95.75" x2="565.25" y2="87.333"/>
	<line fill="none" stroke="#FFFFFF" stroke-miterlimit="10" x1="557.156" y1="101.382" x2="565.26" y2="93.278"/>
	<line fill="none" stroke="#FFFFFF" stroke-miterlimit="10" x1="557.03" y1="106.409" x2="565.067" y2="98.371"/>
	<line fill="none" stroke="#FFFFFF" stroke-miterlimit="10" x1="557" y1="111.928" x2="565.561" y2="103.368"/>
	<line fill="none" stroke="#FFFFFF" stroke-miterlimit="10" x1="557.208" y1="117.22" x2="565.25" y2="109"/>
	<line fill="none" stroke="#FFFFFF" stroke-miterlimit="10" x1="561.041" y1="118.771" x2="565.084" y2="114.031"/>
	<line fill="none" stroke="#FFFFFF" stroke-miterlimit="10" x1="592.25" y1="92.667" x2="600.385" y2="86"/>
	<line fill="none" stroke="#FFFFFF" stroke-miterlimit="10" x1="605.25" y1="87.333" x2="592.432" y2="97.659"/>
	<line fill="none" stroke="#FFFFFF" stroke-miterlimit="10" x1="605.306" y1="92.569" x2="592.306" y2="103.431"/>
	<line fill="none" stroke="#FFFFFF" stroke-miterlimit="10" x1="604.927" y1="97.283" x2="592.053" y2="108.871"/>
	<line fill="none" stroke="#FFFFFF" stroke-miterlimit="10" x1="605.026" y1="103.521" x2="592.152" y2="114.846"/>
	<line fill="none" stroke="#FFFFFF" stroke-miterlimit="10" x1="605.271" y1="108.932" x2="593.167" y2="118.771"/>
	<line fill="none" stroke="#FFFFFF" stroke-miterlimit="10" x1="605.426" y1="113.193" x2="599.614" y2="118.483"/>
	<path fill="none" stroke="#FFFFFF" stroke-miterlimit="10" d="M493,125"/>
	<path fill="none" stroke="#FFFFFF" stroke-miterlimit="10" d="M493,125"/>
	<rect x="483.818" y="86.242" fill="none" stroke="#FFFFFF" stroke-miterlimit="10" width="8.182" height="33.091"/>
	<rect x="520.5" y="86" fill="none" stroke="#FFFFFF" stroke-miterlimit="10" width="8" height="32.75"/>
	<rect x="557" y="86" fill="none" stroke="#FFFFFF" stroke-miterlimit="10" width="8.5" height="32.75"/>
	<rect x="592.25" y="86" fill="none" stroke="#FFFFFF" stroke-miterlimit="10" width="13" height="32.75"/>
</g>
<g id="The_Second_from_Top">
	<line fill="none" stroke="#FFFFFF" stroke-miterlimit="10" x1="54.239" y1="202.529" x2="616.259" y2="202.529"/>
	<line fill="none" stroke="#FFFFFF" stroke-miterlimit="10" x1="67" y1="166.5" x2="67" y2="239.695"/>
	<line fill="none" stroke="#FFFFFF" stroke-miterlimit="10" x1="81.5" y1="166.5" x2="81.5" y2="239.695"/>
	<line fill="none" stroke="#FFFFFF" stroke-miterlimit="10" x1="96" y1="166.5" x2="96" y2="239.695"/>
	<line fill="none" stroke="#FFFFFF" stroke-miterlimit="10" x1="110.75" y1="166.5" x2="110.75" y2="239.695"/>
	<line fill="none" stroke="#FFFFFF" stroke-miterlimit="10" x1="124.75" y1="166.5" x2="124.75" y2="239.695"/>
	<line fill="none" stroke="#FFFFFF" stroke-miterlimit="10" x1="139.5" y1="166.5" x2="139.5" y2="239.695"/>
	<line fill="none" stroke="#FFFFFF" stroke-miterlimit="10" x1="153.75" y1="166.5" x2="153.75" y2="239.695"/>
	<line fill="none" stroke="#FFFFFF" stroke-miterlimit="10" x1="168" y1="166.5" x2="168" y2="239.695"/>
	<line fill="none" stroke="#FFFFFF" stroke-miterlimit="10" x1="181.75" y1="166.5" x2="181.75" y2="239.695"/>
	<line fill="none" stroke="#FFFFFF" stroke-miterlimit="10" x1="196.5" y1="166.5" x2="196.5" y2="239.695"/>
	<line fill="none" stroke="#FFFFFF" stroke-miterlimit="10" x1="211.25" y1="166.5" x2="211.25" y2="239.695"/>
	<line fill="none" stroke="#FFFFFF" stroke-miterlimit="10" x1="225.5" y1="166.5" x2="225.5" y2="239.695"/>
	<line fill="none" stroke="#FFFFFF" stroke-miterlimit="10" x1="239" y1="166.5" x2="239" y2="239.695"/>
	<line fill="none" stroke="#FFFFFF" stroke-miterlimit="10" x1="253.5" y1="166.5" x2="253.5" y2="239.695"/>
	<line fill="none" stroke="#FFFFFF" stroke-miterlimit="10" x1="268" y1="166.5" x2="268" y2="239.695"/>
	<line fill="none" stroke="#FFFFFF" stroke-miterlimit="10" x1="282" y1="166.5" x2="282" y2="239.695"/>
	<line fill="none" stroke="#FFFFFF" stroke-miterlimit="10" x1="296.75" y1="166.5" x2="296.75" y2="239.695"/>
	<line fill="none" stroke="#FFFFFF" stroke-miterlimit="10" x1="311.5" y1="166.5" x2="311.5" y2="239.695"/>
	<line fill="none" stroke="#FFFFFF" stroke-miterlimit="10" x1="325.75" y1="166.5" x2="325.75" y2="239.695"/>
	<line fill="none" stroke="#FFFFFF" stroke-miterlimit="10" x1="340.25" y1="166.5" x2="340.25" y2="239.695"/>
	<line fill="none" stroke="#FFFFFF" stroke-miterlimit="10" x1="355.25" y1="166.5" x2="355.25" y2="239.695"/>
	<line fill="none" stroke="#FFFFFF" stroke-miterlimit="10" x1="369.417" y1="166.5" x2="369.417" y2="239.695"/>
	<line fill="none" stroke="#FFFFFF" stroke-miterlimit="10" x1="383" y1="166.5" x2="383" y2="239.695"/>
	<line fill="none" stroke="#FFFFFF" stroke-miterlimit="10" x1="397.75" y1="166.5" x2="397.75" y2="239.695"/>
	<line fill="none" stroke="#FFFFFF" stroke-miterlimit="10" x1="412" y1="166.5" x2="412" y2="239.695"/>
	<line fill="none" stroke="#FFFFFF" stroke-miterlimit="10" x1="426.75" y1="166.5" x2="426.75" y2="239.695"/>
	<line fill="none" stroke="#FFFFFF" stroke-miterlimit="10" x1="440.5" y1="165.5" x2="440.5" y2="239.695"/>
	<line fill="none" stroke="#FFFFFF" stroke-miterlimit="10" x1="455.25" y1="166.5" x2="455.25" y2="239.695"/>
	<line fill="none" stroke="#FFFFFF" stroke-miterlimit="10" x1="470.25" y1="166.5" x2="470.25" y2="239.695"/>
	<line fill="none" stroke="#FFFFFF" stroke-miterlimit="10" x1="483.85" y1="166.5" x2="483.85" y2="239.695"/>
	<line fill="none" stroke="#FFFFFF" stroke-miterlimit="10" x1="499.25" y1="166.5" x2="499.25" y2="239.695"/>
	<line fill="none" stroke="#FFFFFF" stroke-miterlimit="10" x1="513.5" y1="166.5" x2="513.5" y2="239.695"/>
	<line fill="none" stroke="#FFFFFF" stroke-miterlimit="10" x1="528.25" y1="166.5" x2="528.25" y2="239.695"/>
	<line fill="none" stroke="#FFFFFF" stroke-miterlimit="10" x1="542.75" y1="166.5" x2="542.75" y2="239.695"/>
	<line fill="none" stroke="#FFFFFF" stroke-miterlimit="10" x1="556.833" y1="166.5" x2="556.833" y2="239.695"/>
	<line fill="none" stroke="#FFFFFF" stroke-miterlimit="10" x1="570.5" y1="166.5" x2="570.5" y2="239.695"/>
	<line fill="none" stroke="#FFFFFF" stroke-miterlimit="10" x1="585.75" y1="166.5" x2="585.25" y2="239.695"/>
	<line fill="none" stroke="#FFFFFF" stroke-miterlimit="10" x1="600.385" y1="166.5" x2="600.385" y2="239.695"/>
</g>
<g id="The_Third_from_Top">
	<line fill="none" stroke="#FFFFFF" stroke-miterlimit="10" x1="56.087" y1="323.33" x2="338.458" y2="323.33"/>
	<line fill="none" stroke="#FFFFFF" stroke-miterlimit="10" x1="400.374" y1="324.586" x2="616.259" y2="324.586"/>
	<line fill="none" stroke="#FFFFFF" stroke-miterlimit="10" x1="67" y1="288" x2="67" y2="359.5"/>
	<line fill="none" stroke="#FFFFFF" stroke-miterlimit="10" x1="81.5" y1="288" x2="81.5" y2="359.5"/>
	<line fill="none" stroke="#FFFFFF" stroke-miterlimit="10" x1="96" y1="288" x2="96" y2="359.5"/>
	<line fill="none" stroke="#FFFFFF" stroke-miterlimit="10" x1="110.75" y1="288" x2="110.75" y2="359.5"/>
	<line fill="none" stroke="#FFFFFF" stroke-miterlimit="10" x1="124.75" y1="288" x2="124.75" y2="359.5"/>
	<line fill="none" stroke="#FFFFFF" stroke-miterlimit="10" x1="139.5" y1="288" x2="139.5" y2="359.5"/>
	<line fill="none" stroke="#FFFFFF" stroke-miterlimit="10" x1="153.75" y1="288" x2="153.75" y2="359.5"/>
	<line fill="none" stroke="#FFFFFF" stroke-miterlimit="10" x1="168" y1="288" x2="168" y2="359.5"/>
	<line fill="none" stroke="#FFFFFF" stroke-miterlimit="10" x1="181.75" y1="288" x2="181.75" y2="359.5"/>
	<line fill="none" stroke="#FFFFFF" stroke-miterlimit="10" x1="196.5" y1="288" x2="196.5" y2="359.5"/>
	<line fill="none" stroke="#FFFFFF" stroke-miterlimit="10" x1="211.25" y1="288" x2="211.25" y2="359.5"/>
	<line fill="none" stroke="#FFFFFF" stroke-miterlimit="10" x1="225.5" y1="288" x2="225.5" y2="359.5"/>
	<line fill="none" stroke="#FFFFFF" stroke-miterlimit="10" x1="239" y1="288" x2="239" y2="359.5"/>
	<line fill="none" stroke="#FFFFFF" stroke-miterlimit="10" x1="253.5" y1="288" x2="253.5" y2="359.5"/>
	<line fill="none" stroke="#FFFFFF" stroke-miterlimit="10" x1="269" y1="288" x2="269" y2="359.5"/>
	<line fill="none" stroke="#FFFFFF" stroke-miterlimit="10" x1="283.5" y1="288" x2="284.25" y2="359.5"/>
	<line fill="none" stroke="#FFFFFF" stroke-miterlimit="10" x1="298" y1="288" x2="298" y2="359.5"/>
	<line fill="none" stroke="#FFFFFF" stroke-miterlimit="10" x1="311.5" y1="288" x2="311.5" y2="359.5"/>
	<line fill="none" stroke="#FFFFFF" stroke-miterlimit="10" x1="325.75" y1="288" x2="325.75" y2="359.5"/>
	<line fill="none" stroke="#FFFFFF" stroke-miterlimit="10" x1="412" y1="288" x2="412" y2="359.5"/>
	<line fill="none" stroke="#FFFFFF" stroke-miterlimit="10" x1="426.75" y1="288" x2="426.75" y2="359.5"/>
	<line fill="none" stroke="#FFFFFF" stroke-miterlimit="10" x1="441.5" y1="288" x2="441.5" y2="359.5"/>
	<line fill="none" stroke="#FFFFFF" stroke-miterlimit="10" x1="455.25" y1="288" x2="455.25" y2="359.5"/>
	<line fill="none" stroke="#FFFFFF" stroke-miterlimit="10" x1="470.25" y1="288" x2="470.25" y2="359.5"/>
	<line fill="none" stroke="#FFFFFF" stroke-miterlimit="10" x1="483.85" y1="288" x2="483.85" y2="359.5"/>
	<line fill="none" stroke="#FFFFFF" stroke-miterlimit="10" x1="499.25" y1="288" x2="499.25" y2="359.5"/>
	<line fill="none" stroke="#FFFFFF" stroke-miterlimit="10" x1="513.5" y1="288" x2="513.5" y2="359.5"/>
	<line fill="none" stroke="#FFFFFF" stroke-miterlimit="10" x1="528.25" y1="288" x2="528.25" y2="359.5"/>
	<line fill="none" stroke="#FFFFFF" stroke-miterlimit="10" x1="542.75" y1="288" x2="542.75" y2="359.5"/>
	<line fill="none" stroke="#FFFFFF" stroke-miterlimit="10" x1="556.833" y1="288" x2="556.833" y2="359.5"/>
	<line fill="none" stroke="#FFFFFF" stroke-miterlimit="10" x1="570.5" y1="288" x2="570.5" y2="359.5"/>
	<line fill="none" stroke="#FFFFFF" stroke-miterlimit="10" x1="585.75" y1="288" x2="585.75" y2="359.5"/>
	<line fill="none" stroke="#FFFFFF" stroke-miterlimit="10" x1="600.385" y1="288" x2="600.385" y2="359.5"/>
	<line fill="none" stroke="#FFFFFF" stroke-miterlimit="10" x1="693.684" y1="325.5" x2="760.663" y2="325.5"/>
	<line fill="none" stroke="#FFFFFF" stroke-miterlimit="10" x1="705.25" y1="288" x2="705.25" y2="359.5"/>
	<line fill="none" stroke="#FFFFFF" stroke-miterlimit="10" x1="719" y1="288" x2="719" y2="359.5"/>
	<line fill="none" stroke="#FFFFFF" stroke-miterlimit="10" x1="734" y1="288" x2="734" y2="359.5"/>
	<line fill="none" stroke="#FFFFFF" stroke-miterlimit="10" x1="748" y1="288" x2="748" y2="359.5"/>
</g>
<g id="The_Second_from_bottom">
	<line fill="none" stroke="#FFFFFF" stroke-miterlimit="10" x1="68.5" y1="406.75" x2="68.5" y2="441.75"/>
	<line fill="none" stroke="#FFFFFF" stroke-miterlimit="10" x1="82.5" y1="406.75" x2="82.5" y2="441.833"/>
	<line fill="none" stroke="#FFFFFF" stroke-miterlimit="10" x1="97" y1="406.75" x2="97" y2="441.75"/>
	<line fill="none" stroke="#FFFFFF" stroke-miterlimit="10" x1="110.75" y1="406.75" x2="110.75" y2="441.635"/>
	<line fill="none" stroke="#FFFFFF" stroke-miterlimit="10" x1="126" y1="406.75" x2="126" y2="441.75"/>
	<line fill="none" stroke="#FFFFFF" stroke-miterlimit="10" x1="139.5" y1="406.75" x2="139.5" y2="440.775"/>
	<line fill="none" stroke="#FFFFFF" stroke-miterlimit="10" x1="215.166" y1="445.851" x2="616.951" y2="445.851"/>
	<line fill="none" stroke="#FFFFFF" stroke-miterlimit="10" x1="693.684" y1="444.933" x2="760.166" y2="444.933"/>
	<line fill="none" stroke="#FFFFFF" stroke-miterlimit="10" x1="228.25" y1="410.25" x2="228.25" y2="481"/>
	<line fill="none" stroke="#FFFFFF" stroke-miterlimit="10" x1="243" y1="410.25" x2="243" y2="481"/>
	<line fill="none" stroke="#FFFFFF" stroke-miterlimit="10" x1="257.25" y1="410.25" x2="257.25" y2="481"/>
	<line fill="none" stroke="#FFFFFF" stroke-miterlimit="10" x1="271.5" y1="410.25" x2="271.5" y2="481"/>
	<line fill="none" stroke="#FFFFFF" stroke-miterlimit="10" x1="286.25" y1="410.25" x2="286.25" y2="481"/>
	<line fill="none" stroke="#FFFFFF" stroke-miterlimit="10" x1="300.75" y1="410.25" x2="300.75" y2="481"/>
	<line fill="none" stroke="#FFFFFF" stroke-miterlimit="10" x1="315.25" y1="410.25" x2="315.25" y2="481"/>
	<line fill="none" stroke="#FFFFFF" stroke-miterlimit="10" x1="329.75" y1="410.25" x2="329.75" y2="481"/>
	<line fill="none" stroke="#FFFFFF" stroke-miterlimit="10" x1="343.25" y1="410.25" x2="343.25" y2="481"/>
	<path fill="none" stroke="#FFFFFF" stroke-miterlimit="10" d="M358.5,481"/>
	<line fill="none" stroke="#FFFFFF" stroke-miterlimit="10" x1="372.75" y1="410.25" x2="372.75" y2="481"/>
	<path fill="none" stroke="#FFFFFF" stroke-miterlimit="10" d="M388,481"/>
	<line fill="none" stroke="#FFFFFF" stroke-miterlimit="10" x1="402" y1="410.25" x2="402" y2="481"/>
	<line fill="none" stroke="#FFFFFF" stroke-miterlimit="10" x1="358.5" y1="410.25" x2="358.5" y2="481"/>
	<line fill="none" stroke="#FFFFFF" stroke-miterlimit="10" x1="388" y1="410.25" x2="388" y2="481"/>
	<line fill="none" stroke="#FFFFFF" stroke-miterlimit="10" x1="416.059" y1="410.25" x2="416.059" y2="481"/>
	<line fill="none" stroke="#FFFFFF" stroke-miterlimit="10" x1="431.25" y1="410.25" x2="431.25" y2="481"/>
	<line fill="none" stroke="#FFFFFF" stroke-miterlimit="10" x1="446" y1="410.25" x2="446" y2="481"/>
	<line fill="none" stroke="#FFFFFF" stroke-miterlimit="10" x1="459.75" y1="410.25" x2="459.75" y2="481"/>
	<line fill="none" stroke="#FFFFFF" stroke-miterlimit="10" x1="474.25" y1="410.25" x2="474.25" y2="481"/>
	<line fill="none" stroke="#FFFFFF" stroke-miterlimit="10" x1="488.25" y1="409.334" x2="488.25" y2="481"/>
	<line fill="none" stroke="#FFFFFF" stroke-miterlimit="10" x1="503.25" y1="410.25" x2="503.25" y2="481"/>
	<line fill="none" stroke="#FFFFFF" stroke-miterlimit="10" x1="518" y1="410.25" x2="518" y2="481"/>
	<path fill="none" stroke="#FFFFFF" stroke-miterlimit="10" d="M532.5,481"/>
	<path fill="none" stroke="#FFFFFF" stroke-miterlimit="10" d="M546.5,481"/>
	<path fill="none" stroke="#FFFFFF" stroke-miterlimit="10" d="M560.25,481"/>
	<path fill="none" stroke="#FFFFFF" stroke-miterlimit="10" d="M560.25,410.25"/>
	<path fill="none" stroke="#FFFFFF" stroke-miterlimit="10" d="M575.75,481"/>
	<line fill="none" stroke="#FFFFFF" stroke-miterlimit="10" x1="546.5" y1="410.25" x2="546.5" y2="481"/>
	<line fill="none" stroke="#FFFFFF" stroke-miterlimit="10" x1="532.5" y1="410.25" x2="532.5" y2="481"/>
	<line fill="none" stroke="#FFFFFF" stroke-miterlimit="10" x1="560.25" y1="410.25" x2="560.25" y2="481"/>
	<line fill="none" stroke="#FFFFFF" stroke-miterlimit="10" x1="575.75" y1="409.334" x2="575.75" y2="481"/>
	<line fill="none" stroke="#FFFFFF" stroke-miterlimit="10" x1="590" y1="409.334" x2="590" y2="481"/>
	<line fill="none" stroke="#FFFFFF" stroke-miterlimit="10" x1="603.5" y1="409.334" x2="603.5" y2="481"/>
	<line fill="none" stroke="#FFFFFF" stroke-miterlimit="10" x1="706.75" y1="409.334" x2="706.75" y2="481"/>
	<line fill="none" stroke="#FFFFFF" stroke-miterlimit="10" x1="720.25" y1="409.334" x2="720.25" y2="481"/>
	<line fill="none" stroke="#FFFFFF" stroke-miterlimit="10" x1="735.5" y1="409.334" x2="735.5" y2="481"/>
	<line fill="none" stroke="#FFFFFF" stroke-miterlimit="10" x1="750" y1="409.334" x2="750" y2="481"/>
</g>
<g id="Bottom_most_Layer">
	<line fill="none" stroke="#FFFFFF" stroke-miterlimit="10" x1="176" y1="528.75" x2="176" y2="563"/>
	<line fill="none" stroke="#FFFFFF" stroke-miterlimit="10" x1="191" y1="528.75" x2="191" y2="563"/>
	<line fill="none" stroke="#FFFFFF" stroke-miterlimit="10" x1="204.5" y1="528.75" x2="204.5" y2="563"/>
	<line fill="none" stroke="#FFFFFF" stroke-miterlimit="10" x1="220" y1="528.75" x2="220" y2="563"/>
	<line fill="none" stroke="#FFFFFF" stroke-miterlimit="10" x1="233.25" y1="528.75" x2="233.25" y2="563"/>
	<line fill="none" stroke="#FFFFFF" stroke-miterlimit="10" x1="248.75" y1="528.75" x2="248.75" y2="563"/>
	<line fill="none" stroke="#FFFFFF" stroke-miterlimit="10" x1="262.333" y1="528.75" x2="262.333" y2="563"/>
	<line fill="none" stroke="#FFFFFF" stroke-miterlimit="10" x1="277.167" y1="528.75" x2="277.167" y2="563"/>
	<line fill="none" stroke="#FFFFFF" stroke-miterlimit="10" x1="291.667" y1="528.75" x2="291.667" y2="563"/>
	<line fill="none" stroke="#FFFFFF" stroke-miterlimit="10" x1="306" y1="528.75" x2="306" y2="563"/>
	<line fill="none" stroke="#FFFFFF" stroke-miterlimit="10" x1="320.167" y1="528.75" x2="320.167" y2="563"/>
	<line fill="none" stroke="#FFFFFF" stroke-miterlimit="10" x1="334.5" y1="528.75" x2="334.5" y2="563"/>
	<line fill="none" stroke="#FFFFFF" stroke-miterlimit="10" x1="349.5" y1="528.75" x2="349.5" y2="563"/>
	<line fill="none" stroke="#FFFFFF" stroke-miterlimit="10" x1="363.833" y1="528.75" x2="363.833" y2="563"/>
	<line fill="none" stroke="#FFFFFF" stroke-miterlimit="10" x1="377.167" y1="528.75" x2="377.167" y2="563"/>
	<line fill="none" stroke="#FFFFFF" stroke-miterlimit="10" x1="392.167" y1="528.75" x2="392.167" y2="563"/>
	<line fill="none" stroke="#FFFFFF" stroke-miterlimit="10" x1="406" y1="528.75" x2="406" y2="563"/>
	<line fill="none" stroke="#FFFFFF" stroke-miterlimit="10" x1="420.834" y1="528.75" x2="420.834" y2="563"/>
	<line fill="none" stroke="#FFFFFF" stroke-miterlimit="10" x1="436" y1="528.75" x2="436" y2="563"/>
	<line fill="none" stroke="#FFFFFF" stroke-miterlimit="10" x1="450.167" y1="528.75" x2="450.167" y2="563"/>
	<line fill="none" stroke="#FFFFFF" stroke-miterlimit="10" x1="465" y1="528.75" x2="465" y2="563"/>
	<line fill="none" stroke="#FFFFFF" stroke-miterlimit="10" x1="479" y1="528.75" x2="479" y2="563"/>
	<line fill="none" stroke="#FFFFFF" stroke-miterlimit="10" x1="493.5" y1="528.75" x2="493.5" y2="563"/>
	<line fill="none" stroke="#FFFFFF" stroke-miterlimit="10" x1="508.334" y1="528.75" x2="508.334" y2="563"/>
	<line fill="none" stroke="#FFFFFF" stroke-miterlimit="10" x1="522.5" y1="528.75" x2="522.5" y2="563"/>
	<line fill="none" stroke="#FFFFFF" stroke-miterlimit="10" x1="537" y1="528.75" x2="537" y2="563"/>
	<line fill="none" stroke="#FFFFFF" stroke-miterlimit="10" x1="551.834" y1="528.75" x2="551.834" y2="563"/>
	<line fill="none" stroke="#FFFFFF" stroke-miterlimit="10" x1="566" y1="528.75" x2="566" y2="563"/>
	<line fill="none" stroke="#FFFFFF" stroke-miterlimit="10" x1="580.5" y1="528.75" x2="580.5" y2="563"/>
	<line fill="none" stroke="#FFFFFF" stroke-miterlimit="10" x1="595" y1="528.75" x2="595" y2="563"/>
	<line fill="none" stroke="#FFFFFF" stroke-miterlimit="10" x1="609" y1="528.75" x2="609" y2="563"/>
	<line fill="none" stroke="#FFFFFF" stroke-miterlimit="10" x1="623.334" y1="528.75" x2="623.5" y2="563"/>
	<line fill="none" stroke="#FFFFFF" stroke-miterlimit="10" x1="638.166" y1="528.75" x2="638.166" y2="563"/>
	<line fill="none" stroke="#FFFFFF" stroke-miterlimit="10" x1="652.5" y1="528.75" x2="652.5" y2="563"/>
	<line fill="none" stroke="#FFFFFF" stroke-miterlimit="10" x1="667.166" y1="528.75" x2="667" y2="563"/>
	<line fill="none" stroke="#FFFFFF" stroke-miterlimit="10" x1="681.166" y1="528.75" x2="681.166" y2="563"/>
	<line fill="none" stroke="#FFFFFF" stroke-miterlimit="10" x1="695.333" y1="528.75" x2="695.333" y2="563"/>
	<line fill="none" stroke="#FFFFFF" stroke-miterlimit="10" x1="710.166" y1="528.75" x2="710.166" y2="563"/>
	<line fill="none" stroke="#FFFFFF" stroke-miterlimit="10" x1="724.5" y1="528.75" x2="724.5" y2="563"/>
	<line fill="none" stroke="#FFFFFF" stroke-miterlimit="10" x1="739.166" y1="528.75" x2="739" y2="563"/>
	<line fill="none" stroke="#FFFFFF" stroke-miterlimit="10" x1="754" y1="528.75" x2="754" y2="563"/>
</g>
</svg>
